<svg width="56" height="40" viewBox="0 0 56 40" fill="none" xmlns="http://www.w3.org/2000/svg">
<path d="M54.153 0H1.847C0.82693 0 0 0.870453 0 1.94421V38.0558C0 39.1295 0.82693 40 1.847 40H54.153C55.1731 40 56 39.1295 56 38.0558V1.94421C56 0.870453 55.1731 0 54.153 0Z" fill="#DA291C"/>
<path d="M38.692 20.7768V29.2789H34.738V21.3842C34.7708 21.054 34.735 20.7203 34.6328 20.4062C34.5307 20.0922 34.3648 19.8053 34.1467 19.5655C33.9285 19.3258 33.6634 19.1389 33.3697 19.018C33.076 18.8971 32.7608 18.845 32.446 18.8653C30.996 18.8653 29.994 19.7516 29.994 21.7179V29.2779H26.041V9.89262H29.994V16.7347C30.451 16.16 31.0307 15.7073 31.6858 15.4137C32.3409 15.12 33.0527 14.9938 33.763 15.0453C36.425 15.0453 38.691 17.0389 38.691 20.7779" fill="white"/>
<path d="M17.4648 14.9074C16.0755 14.8973 14.7147 15.3219 13.555 16.1271C12.3952 16.9323 11.4887 18.0819 10.9505 19.4302C10.4123 20.7784 10.2666 22.2645 10.5319 23.7001C10.7972 25.1356 11.4615 26.4559 12.4405 27.4934C13.4196 28.531 14.6694 29.2391 16.0313 29.528C17.3933 29.8169 18.806 29.6735 20.0905 29.1161C21.3749 28.5586 22.4731 27.6122 23.2458 26.3968C24.0186 25.1814 24.431 23.7519 24.4308 22.2895C24.434 21.3233 24.2563 20.3659 23.9079 19.4719C23.5596 18.578 23.0473 17.7651 22.4004 17.0796C21.7536 16.3941 20.9848 15.8494 20.1379 15.4767C19.291 15.104 18.3827 14.9105 17.4648 14.9074ZM17.4648 25.5821C16.8453 25.5865 16.2385 25.3971 15.7213 25.038C15.2042 24.6788 14.8 24.1661 14.56 23.5649C14.32 22.9636 14.2551 22.3009 14.3734 21.6608C14.4917 21.0206 14.788 20.4318 15.2246 19.9692C15.6612 19.5065 16.2185 19.1907 16.8258 19.0618C17.4332 18.933 18.0632 18.9969 18.636 19.2454C19.2088 19.494 19.6985 19.916 20.0432 20.4579C20.3878 20.9998 20.5718 21.6373 20.5718 22.2895C20.5745 23.1597 20.2487 23.9955 19.666 24.613C19.0834 25.2304 18.2916 25.579 17.4648 25.5821Z" fill="white"/>
<path d="M40.3027 27.0158C40.3065 26.4962 40.4563 25.9894 40.7333 25.5592C41.0102 25.1291 41.402 24.7949 41.8591 24.5988C42.3162 24.4027 42.8183 24.3534 43.302 24.4572C43.7857 24.561 44.2294 24.8132 44.5771 25.182C44.9248 25.5508 45.1611 26.0198 45.256 26.5297C45.3509 27.0396 45.3003 27.5677 45.1106 28.0474C44.9208 28.5271 44.6004 28.9369 44.1897 29.2252C43.779 29.5135 43.2964 29.6673 42.8027 29.6674C42.1385 29.6602 41.5037 29.3779 41.0358 28.8816C40.5679 28.3853 40.3045 27.715 40.3027 27.0158Z" fill="white"/>
<path d="M40.4336 17.1336V10.5652C40.4333 10.4773 40.4495 10.3902 40.4812 10.3089C40.513 10.2275 40.5596 10.1536 40.6185 10.0912C40.6773 10.0288 40.7473 9.9793 40.8244 9.9454C40.9014 9.9115 40.9841 9.89391 41.0676 9.89363H44.5376C44.7061 9.89447 44.8674 9.96565 44.9861 10.0916C45.1048 10.2175 45.1711 10.3878 45.1706 10.5652V17.1336C45.1708 17.1636 45.1688 17.1935 45.1646 17.2231L44.4546 22.8726C44.4347 23.0333 44.3602 23.1811 44.2447 23.2883C44.1292 23.3956 43.9806 23.455 43.8266 23.4557H41.7776C41.6235 23.4555 41.4747 23.3962 41.3591 23.2888C41.2435 23.1815 41.169 23.0335 41.1496 22.8726L40.4396 17.2231C40.4354 17.1935 40.4334 17.1636 40.4336 17.1336Z" fill="white"/>
</svg>
